<?xml version="1.0" encoding="utf-8"?>
<svg xmlns="http://www.w3.org/2000/svg" viewBox="0 0 1200 600">
  <switch>
    <g>
      <path d="M941.3 375.69c0-22.33 15.09-38.02 36.21-38.02s35.61 15.69 35.61 38.02c0 21.73-13.88 38.02-36.21 38.02-21.12 0-35.61-16.29-35.61-38.02zM738.53 340.23c.09-2.14-1.73-2.9-4.26-3.76-2.45.04-6.68-5.17-8.36-6.62-2.03.08-.71-5.32-.33-6.29.52-.59-.4-1.97.1-2.54.31-4.35 2.85-12.17 2.08-17.37l.39.02c1.41-.71-.45-3.42 1.35-4.26.61-.56.61-.56.47-1.94-.47-2.96-.47-2.96.55-3.9 2.18-3.46 3.21-15.57 5.54-20.56.73-2.16 2.57-7.29 3.02-6.74 1.41-.92 1.84-1.89 1.11-3.29-1.62-4.39-.39-8.47-.63-13.36-.5-2.46-1.09-4.43-1.49-6.73.2-.19.61-.56.82-.75-1.39-6.53-1.44-1.4-1.33-15.55.06-3.83.02-7.57-1.19-9.27-2.86-3.62-12.53-6.14-6.56-12.23.94-2.61 1.84-7.73 2.4-10.88.25-1.5-.6-2.11-.44-3.55.74-2.17-1.6-3.58-2.95-4.63-3.86-3.36-12.32-.18-12.21 6.17-.06 1.57-.08 1.96-.48 2.14-2.64 3.14 1.53 5.9 1.18 9.46-1.34 6.77-9.8 7.08-14 11.59-4.19 4.28-4.06 7.02-3.83 12.2-.21 5.66-1.01 2.18-1.16 9.17-.1 3.85-1.11 5.16.1 7.26 1.15 2.59 2.92 7.51 4.08 10.56-.39.88 4.24 5.96 3.6 7.79.04 1.36-.43 3.87.18 5.3.96 1.59.18 3.46.19 4.91-.27 10.85 2.2 18.62.21 28.64-.02.39-.22.58-.03.78-3.03 6.62-2.59 8.84-3.12 18.89-.43 10.57-.41 9.98.92 11.02.95.82 1.13 1.22.69 2.38.03 2.08-1.29 4.72-1.05 6.62.02.81.14 1.7.29 2.58-9.84 6.51-15.93 18-15.93 32.18 0 21.73 14.49 38.02 35.61 38.02 22.33 0 36.21-16.3 36.21-38.02-.01-16.98-8.41-30.13-21.74-35.44zm-17.04-60.76c.1 0 .29.01.39.02-.7 3.99-1.32 4.17-2.05 11.88-.16 2.01-1.02 4.51-.05 6.08-.32.03-.52-.14-.77-.42-.57-1.8 2.16-18.03 2.48-17.56zm-5.17 25.68c.56.07.45-1.65.9-2.9-.22-.17-.71-.52-.95-.63 1.57-.33 1.62-2.31 2.31-3.83l.98.04.19.2c-2.17 6.8-1.38 10.89-1.92 23.06.14 1.3-.6 3.56 0 4.71.17.6.34 1.19.32 1.78-.36 2.84-1.74 1.21-1.81 5.81-.63 3.62.22 4.44 2.01 4.77-1.75.28-3.44.66-5.08 1.16-.39-1.3-1.6-2.46-1.31-4.35.15-1.63-.96-2.35-.43-3.94.28-10.88 1.68-6.08 2.87-22.24.49-1.26.49-3.52 1.92-3.64zm-5.57-50.82c.12.01.46.02.59.02-.43 1.29 1.13 2.74 1.02 3.96l-.2-.01s-.19-.2-.37-.6c-1.18-2.09-1.11-1.97-1.04-3.37zm-3.74-9.37c-.63-.33-.33-1.49-.3-2.17-.19.12-.57.22-.79.16.01-.12.02-.46.02-.59.78.25 1.28-1.42 2.01-1.09.27 1.08.65 4.23-.94 3.69zm5.56 94.55h.12c-.04.01-.08.03-.12.04v-.04zM435.58 375.69c0-22.33 15.09-38.02 36.21-38.02s35.61 15.69 35.61 38.02c0 21.73-13.88 38.02-36.21 38.02-21.13 0-35.61-16.29-35.61-38.02zM182.71 375.69c0-22.33 15.09-38.02 36.21-38.02s35.61 15.69 35.61 38.02c0 21.73-13.88 38.02-36.21 38.02-21.12 0-35.61-16.29-35.61-38.02z"/>
    </g>
  </switch>
</svg>
