<svg id="Layer_1" data-name="Layer 1" xmlns="http://www.w3.org/2000/svg" xmlns:xlink="http://www.w3.org/1999/xlink" viewBox="0 0 460.2 297.75"><defs><style>.cls-1{fill:#fff;}.cls-2{fill:#303030;}.cls-3{fill:#999;}.cls-4{fill:#ccc;}.cls-5{fill:none;stroke:#a35e74;stroke-miterlimit:10;stroke-width:26px;}.cls-6{fill:#a35e74;}</style><symbol id="PageFrame" data-name="PageFrame" viewBox="0 0 460 299"><rect class="cls-1" x="1" y="1" width="458" height="297"/><path class="cls-2" d="M458,2V297H2V2H458m2-2H0V299H460V0Z"/></symbol></defs><title>ActionMaps</title><use width="460" height="299" transform="translate(-0.79 -1)" xlink:href="#PageFrame"/><rect class="cls-3" x="0.61" width="312.8" height="186"/><rect class="cls-3" x="320.41" y="156" width="72" height="114"/><rect class="cls-3" x="9.41" y="196" width="148" height="76"/><rect class="cls-4" x="333.41" y="34" width="101" height="69"/><line class="cls-5" x1="157.21" y1="113" x2="312.42" y2="169.94"/><polygon class="cls-6" points="292.35 197.1 356.21 186 314.68 136.24 292.35 197.1"/><polygon class="cls-6" points="82.21 105.07 54.21 121.24 82.21 137.41 82.21 105.07"/><line class="cls-5" x1="204.21" y1="234" x2="98.86" y2="234"/><polygon class="cls-6" points="108.34 201.59 52.21 234 108.34 266.41 108.34 201.59"/></svg>