<svg id="Layer_1" data-name="Layer 1" xmlns="http://www.w3.org/2000/svg" xmlns:xlink="http://www.w3.org/1999/xlink" viewBox="0 0 460.2 297.75"><defs><style>.cls-1{fill:#fff;}.cls-2{fill:#303030;}.cls-3{fill:#ccc;}.cls-4{fill:#999;}.cls-5{fill:#2d2d2d;}</style><symbol id="PageFrame" data-name="PageFrame" viewBox="0 0 460 299"><rect class="cls-1" x="1" y="1" width="458" height="297"/><path class="cls-2" d="M458,2V297H2V2H458m2-2H0V299H460V0Z"/></symbol></defs><title>ActionMaps</title><use width="460" height="299" transform="translate(-0.79 -1)" xlink:href="#PageFrame"/><rect x="0.61" width="312.8" height="186"/><polygon class="cls-3" points="260.75 243.46 260.43 273 169.41 273 169.41 195 298.41 195 298.41 244.04 260.75 243.46"/><rect class="cls-2" x="320.41" y="156" width="72" height="114"/><rect class="cls-4" x="9.41" y="196" width="148" height="76"/><rect class="cls-3" x="400.41" y="170" width="45" height="86"/><rect class="cls-3" x="333.41" y="34" width="101" height="69"/><polygon class="cls-5" points="123.67 20.86 191.56 42.24 182.41 165 114.53 143.62 123.67 20.86"/></svg>