<svg id="Layer_1" data-name="Layer 1" xmlns="http://www.w3.org/2000/svg" xmlns:xlink="http://www.w3.org/1999/xlink" viewBox="0 0 460.2 297.75"><defs><style>.cls-1{fill:#fff;}.cls-2{fill:#303030;}.cls-3{fill:#e5e5e5;}.cls-4{fill:#999;}.cls-5{fill:#ccc;}</style><symbol id="PageFrame" data-name="PageFrame" viewBox="0 0 460 299"><rect class="cls-1" x="1" y="1" width="458" height="297"/><path class="cls-2" d="M458,2V297H2V2H458m2-2H0V299H460V0Z"/></symbol></defs><title>ActionMaps</title><use width="460" height="299" transform="translate(-0.79 -1)" xlink:href="#PageFrame"/><rect x="313.61" width="146.4" height="89"/><polygon class="cls-3" points="97.81 181 97.31 281 17.81 281 17.81 17 218.81 17 218.81 183 97.81 181"/><rect class="cls-2" x="166.61" y="208" width="290.4" height="89"/><rect class="cls-4" x="181.61" y="69" width="96" height="126"/><rect x="18" y="16.64" width="112.61" height="72.36"/><rect class="cls-5" x="377.61" y="104" width="53" height="35"/><rect class="cls-5" x="285.61" y="141" width="53" height="35"/><rect class="cls-5" x="103.61" y="208" width="53" height="35"/><rect class="cls-5" x="139.61" y="16" width="53" height="35"/><polygon points="277.61 195 249.81 195 238.81 122 266.61 122 277.61 195"/><polygon class="cls-2" points="357.9 0 403.81 34 403.81 69 357.81 69 357.9 0"/></svg>