<svg id="Layer_1" data-name="Layer 1" xmlns="http://www.w3.org/2000/svg" xmlns:xlink="http://www.w3.org/1999/xlink" viewBox="0 0 460.2 297.75"><defs><style>.cls-1{fill:#fff;}.cls-2{fill:#303030;}.cls-3{fill:#999;}.cls-4{fill:#ccc;}.cls-5{fill:none;stroke:#a35e74;stroke-miterlimit:10;stroke-width:26px;}.cls-6{fill:#a35e74;}</style><symbol id="PageFrame" data-name="PageFrame" viewBox="0 0 460 299"><rect class="cls-1" x="1" y="1" width="458" height="297"/><path class="cls-2" d="M458,2V297H2V2H458m2-2H0V299H460V0Z"/></symbol></defs><title>ActionMaps</title><use width="460" height="299" transform="translate(-0.99 -1)" xlink:href="#PageFrame"/><rect class="cls-3" x="313.61" width="146.4" height="89"/><rect class="cls-3" x="166.61" y="208" width="290.4" height="89"/><rect class="cls-3" x="181.61" y="69" width="96" height="126"/><rect class="cls-3" x="18" y="16.64" width="112.61" height="72.36"/><rect class="cls-4" x="377.61" y="104" width="53" height="35"/><rect class="cls-4" x="285.61" y="141" width="53" height="35"/><rect class="cls-4" x="103.61" y="208" width="53" height="35"/><rect class="cls-4" x="139.61" y="16" width="53" height="35"/><line class="cls-5" x1="98.61" y1="76" x2="229.5" y2="222.24"/><polygon class="cls-6" points="199.03 236.79 260.61 257 247.33 193.56 199.03 236.79"/><polyline class="cls-5" points="360.69 18.39 229.61 122 309.57 222.5"/><polygon class="cls-6" points="278.3 235.26 338.61 259 329.03 194.9 278.3 235.26"/></svg>