<svg id="Layer_1" data-name="Layer 1" xmlns="http://www.w3.org/2000/svg" xmlns:xlink="http://www.w3.org/1999/xlink" viewBox="0 0 460.2 297.75"><defs><style>.cls-1{fill:#fff;}.cls-2{fill:#303030;}.cls-3{fill:#ccc;}.cls-4{fill:#999;}.cls-5{fill:none;stroke:#a35e74;stroke-miterlimit:10;stroke-width:26px;}.cls-6{fill:#a35e74;}</style><symbol id="PageFrame" data-name="PageFrame" viewBox="0 0 460 299"><rect class="cls-1" x="1" y="1" width="458" height="297"/><path class="cls-2" d="M458,2V297H2V2H458m2-2H0V299H460V0Z"/></symbol></defs><title>ActionMaps</title><use width="460" height="299" transform="translate(-0.6 -1)" xlink:href="#PageFrame"/><rect class="cls-3" x="18.4" y="145" width="53" height="26"/><rect class="cls-3" x="219.4" y="69" width="53" height="35"/><rect class="cls-3" x="368.4" y="179" width="53" height="35"/><rect class="cls-4" x="359.4" y="16" width="62" height="107"/><rect class="cls-4" x="18" y="16.64" width="38.4" height="57.36"/><rect class="cls-4" x="125.4" y="138" width="94" height="142"/><polyline class="cls-5" points="37.4 45 172.4 223 353.38 84.37"/><polygon class="cls-6" points="365.56 115.86 390.4 56 326.14 64.4 365.56 115.86"/><polyline class="cls-5" points="45.4 158 245.4 86 356.88 168.3"/><polygon class="cls-6" points="330 188.74 394.4 196 368.5 136.59 330 188.74"/></svg>