<svg id="Layer_1" data-name="Layer 1" xmlns="http://www.w3.org/2000/svg" xmlns:xlink="http://www.w3.org/1999/xlink" viewBox="0 0 460.2 297.75"><defs><style>.cls-1{fill:#fff;}.cls-2{fill:#303030;}.cls-3{fill:#ccc;}.cls-4{fill:#a3a2a2;}.cls-5{fill:none;stroke:#a35e74;stroke-miterlimit:10;stroke-width:26px;}.cls-6{fill:#a35e74;}.cls-7{fill:#999;}</style><symbol id="PageFrame" data-name="PageFrame" viewBox="0 0 460 299"><rect class="cls-1" x="1" y="1" width="458" height="297"/><path class="cls-2" d="M458,2V297H2V2H458m2-2H0V299H460V0Z"/></symbol></defs><title>ActionMaps</title><use width="460" height="299" transform="translate(-0.2 -1)" xlink:href="#PageFrame"/><polygon class="cls-3" points="417.8 298 427.8 268 441.8 247 400.8 238 373.8 202 357.8 250 319.8 298 417.8 298"/><polygon class="cls-3" points="181.8 0 244.8 45 229.8 84 150.8 84 150.8 69 106.8 0 181.8 0"/><polygon class="cls-4" points="53.8 183 22.8 183 30.8 146 45.8 146 53.8 183"/><rect class="cls-3" x="230.5" y="-0.5" width="230" height="149"/><rect class="cls-3" x="107" y="169" width="138" height="90"/><path class="cls-5" d="M75.31,161.77A92,92,0,0,1,206.23,41.16"/><polygon class="cls-6" points="175.25 58.63 237.83 75.48 221.15 12.85 175.25 58.63"/><path class="cls-5" d="M361.46,126.74a92,92,0,0,1-70.21,163.57"/><polygon class="cls-6" points="312.39 261.72 248.38 271.9 289.2 322.25 312.39 261.72"/><rect class="cls-7" x="293" y="34" width="53" height="80"/><rect class="cls-7" x="123" y="201.64" width="28" height="57.36"/><rect class="cls-7" x="182" y="201.64" width="30" height="57.36"/></svg>